<svg xmlns="http://www.w3.org/2000/svg" width="512" height="512" viewBox="0 -63 480 479"><g><path fill="#bddbff" d="m32 296.5h440v32c-.027344 8.824219-7.175781 15.972656-16 16h-432c-8.824219-.027344-15.972656-7.175781-16-16v-32zm0 0" class="active-path" data-original="#BDDBFF" style="fill:#fdfeff" data-old_color="#bddbff"/><g fill="#3d9ae2"><path d="m472 288.5h-16v-248c-.027344-22.082031-17.917969-39.972656-40-40h-352c-22.082031.027344-39.972656 17.917969-40 40v248h-16c-4.417969 0-8 3.582031-8 8v32c0 13.253906 10.746094 24 24 24h432c13.253906 0 24-10.746094 24-24v-32c0-4.417969-3.582031-8-8-8zm-432-248c0-13.253906 10.746094-24 24-24h352c13.253906 0 24 10.746094 24 24v248h-400zm424 288c0 4.417969-3.582031 8-8 8h-432c-4.417969 0-8-3.582031-8-8v-24h448zm0 0" data-original="#3D9AE2" style="fill:#2ea6d2" data-old_color="#3D9AE2"/><path d="m208 312.5h64v16h-64zm0 0" data-original="#3D9AE2" style="fill:#2ea6d2" data-old_color="#3D9AE2"/><path d="m186.34375 118.15625 11.3125-11.3125-18.34375-18.34375 18.34375-18.34375-11.3125-11.3125-24 24c-3.121094 3.125-3.121094 8.1875 0 11.3125zm0 0" data-original="#3D9AE2" style="fill:#2ea6d2" data-old_color="#3D9AE2"/><path d="m293.65625 118.15625 24-24c3.121094-3.125 3.121094-8.1875 0-11.3125l-24-24-11.3125 11.3125 18.34375 18.34375-18.34375 18.34375zm0 0" data-original="#3D9AE2" style="fill:#2ea6d2" data-old_color="#3D9AE2"/><path d="m216.574219 125.527344 32.007812-79.996094 14.863281 5.945312-32.007812 79.996094zm0 0" data-original="#3D9AE2" style="fill:#2ea6d2" data-old_color="#3D9AE2"/><path d="m176 144.5h48v16h-48zm0 0" data-original="#3D9AE2" style="fill:#2ea6d2" data-old_color="#3D9AE2"/><path d="m160 176.5h32v16h-32zm0 0" data-original="#3D9AE2" style="fill:#2ea6d2" data-old_color="#3D9AE2"/><path d="m208 176.5h32v16h-32zm0 0" data-original="#3D9AE2" style="fill:#2ea6d2" data-old_color="#3D9AE2"/><path d="m128 208.5h96v16h-96zm0 0" data-original="#3D9AE2" style="fill:#2ea6d2" data-old_color="#3D9AE2"/><path d="m144 144.5h16v16h-16zm0 0" data-original="#3D9AE2" style="fill:#2ea6d2" data-old_color="#3D9AE2"/><path d="m152 240.5h96v16h-96zm0 0" data-original="#3D9AE2" style="fill:#2ea6d2" data-old_color="#3D9AE2"/><path d="m264 240.5h16v16h-16zm0 0" data-original="#3D9AE2" style="fill:#2ea6d2" data-old_color="#3D9AE2"/><path d="m256 176.5h32v16h-32zm0 0" data-original="#3D9AE2" style="fill:#2ea6d2" data-old_color="#3D9AE2"/><path d="m240 208.5h32v16h-32zm0 0" data-original="#3D9AE2" style="fill:#2ea6d2" data-old_color="#3D9AE2"/><path d="m288 208.5h32v16h-32zm0 0" data-original="#3D9AE2" style="fill:#2ea6d2" data-old_color="#3D9AE2"/><path d="m240 144.5h64v16h-64zm0 0" data-original="#3D9AE2" style="fill:#2ea6d2" data-old_color="#3D9AE2"/><path d="m296 240.5h48v16h-48zm0 0" data-original="#3D9AE2" style="fill:#2ea6d2" data-old_color="#3D9AE2"/></g></g></svg>